<svg width="98" height="52" viewBox="0 0 98 52" fill="none" xmlns="http://www.w3.org/2000/svg">
<path d="M31.142 29.33C31.032 30.034 30.9 30.584 30.724 31.002C30.504 31.53 30.152 31.926 29.668 32.168C29.184 32.41 28.48 32.52 27.578 32.52H23.31C24.036 32.52 24.278 31.816 24.278 31.816C24.212 31.574 24.19 31.244 24.19 30.804V20.53C24.19 20.002 24.234 19.628 24.322 19.386C24.41 19.144 24.564 18.99 24.806 18.902C24.916 18.858 25.07 18.814 25.268 18.792V18.308H21V18.792C21.198 18.814 21.352 18.858 21.484 18.902C21.726 18.99 21.88 19.144 21.968 19.386C22.056 19.628 22.1 20.002 22.1 20.53V30.804C22.1 31.332 22.056 31.706 21.968 31.948C21.88 32.19 21.726 32.344 21.484 32.432C21.352 32.476 21.198 32.52 21 32.542V33.026H31.758V29.352L31.142 29.33Z" fill="white"/>
<path d="M39.685 18.022C38.343 18.022 37.133 18.352 36.077 19.012C35.021 19.672 34.185 20.574 33.591 21.74C32.997 22.906 32.711 24.248 32.711 25.766C32.711 27.328 32.997 28.67 33.569 29.792C34.141 30.914 34.955 31.772 36.011 32.366C37.067 32.96 38.277 33.246 39.663 33.246C41.005 33.246 42.215 32.916 43.271 32.256C44.327 31.596 45.163 30.694 45.757 29.528C46.351 28.362 46.637 27.02 46.637 25.502C46.637 23.94 46.351 22.598 45.779 21.476C45.207 20.354 44.393 19.496 43.337 18.902C42.281 18.308 41.071 18 39.685 18V18.022ZM39.597 18.374C40.499 18.374 41.313 18.682 42.039 19.276C42.765 19.87 43.337 20.706 43.777 21.806C44.217 22.906 44.437 24.16 44.437 25.59C44.437 27.02 44.239 28.274 43.843 29.374C43.447 30.474 42.897 31.332 42.193 31.948C41.489 32.564 40.675 32.872 39.729 32.872C38.827 32.872 38.013 32.586 37.287 31.992C36.561 31.398 35.967 30.562 35.527 29.462C35.087 28.362 34.867 27.108 34.867 25.678C34.867 24.248 35.065 22.994 35.461 21.894C35.857 20.794 36.407 19.936 37.111 19.32C37.815 18.704 38.629 18.396 39.575 18.396L39.597 18.374Z" fill="white"/>
<path d="M57.4136 27.174C57.6556 27.196 57.8536 27.24 58.0076 27.284C58.2936 27.372 58.4916 27.548 58.6016 27.812C58.7116 28.076 58.7776 28.494 58.7776 29.066V31.046C58.7776 31.332 58.7336 31.552 58.6456 31.706C58.5576 31.86 58.3816 32.014 58.1176 32.19C57.4796 32.608 56.7096 32.828 55.8296 32.828C54.0256 32.828 52.7056 32.256 51.8696 31.112C51.0336 29.968 50.6156 28.142 50.6156 25.656C50.6156 24.182 50.8136 22.906 51.2096 21.806C51.6056 20.706 52.1776 19.87 52.9036 19.276C53.6296 18.682 54.4876 18.374 55.4556 18.374C56.2036 18.374 56.9076 18.528 57.5896 18.814C58.2716 19.1 58.8216 19.496 59.2396 20.002C59.5476 20.354 59.7676 20.772 59.9216 21.256C60.0096 21.564 60.0976 21.938 60.1856 22.378H60.8456L60.9116 18.946H60.3176C60.2076 19.364 60.0536 19.562 59.8556 19.562C59.7456 19.562 59.5916 19.496 59.3936 19.364C58.7336 18.924 58.1176 18.594 57.5676 18.374C57.0176 18.154 56.3136 18.044 55.4556 18.044C54.0916 18.044 52.8816 18.374 51.8036 19.012C50.7256 19.65 49.8896 20.574 49.2736 21.762C48.6576 22.95 48.3496 24.336 48.3496 25.92C48.3496 27.46 48.6356 28.78 49.2076 29.88C49.7796 30.98 50.5936 31.816 51.6716 32.41C52.7496 33.004 54.0476 33.29 55.5656 33.29C56.2476 33.29 56.8636 33.202 57.4136 33.026C57.9636 32.85 58.4916 32.564 58.9976 32.19C59.2176 32.036 59.3716 31.948 59.4596 31.904C59.5476 31.86 59.6356 31.838 59.7236 31.838L60.7576 31.816V28.912C60.7576 28.384 60.7796 28.01 60.8236 27.768C60.8676 27.526 60.9776 27.372 61.1316 27.284C61.2416 27.218 61.4176 27.174 61.6376 27.152V26.712H57.3036L57.4136 27.174Z" fill="white"/>
<path d="M70.4722 18.022C69.1302 18.022 67.9202 18.352 66.8642 19.012C65.8082 19.672 64.9722 20.574 64.3782 21.74C63.7842 22.906 63.4982 24.248 63.4982 25.766C63.4982 27.328 63.7842 28.67 64.3562 29.792C64.9282 30.914 65.7422 31.772 66.7982 32.366C67.8542 32.96 69.0642 33.246 70.4502 33.246C71.7922 33.246 73.0022 32.916 74.0582 32.256C75.1142 31.596 75.9502 30.694 76.5442 29.528C77.1382 28.362 77.4242 27.02 77.4242 25.502C77.4242 23.94 77.1382 22.598 76.5662 21.476C75.9942 20.354 75.1802 19.496 74.1242 18.902C73.0682 18.308 71.8582 18 70.4722 18V18.022ZM70.3842 18.374C71.2862 18.374 72.1002 18.682 72.8262 19.276C73.5522 19.87 74.1242 20.706 74.5642 21.806C75.0042 22.906 75.2242 24.16 75.2242 25.59C75.2242 27.02 75.0262 28.274 74.6302 29.374C74.2342 30.474 73.6842 31.332 72.9802 31.948C72.2762 32.564 71.4622 32.872 70.5162 32.872C69.6142 32.872 68.8002 32.586 68.0742 31.992C67.3482 31.398 66.7542 30.562 66.3142 29.462C65.8742 28.362 65.6542 27.108 65.6542 25.678C65.6542 24.248 65.8522 22.994 66.2482 21.894C66.6442 20.794 67.1942 19.936 67.8982 19.32C68.6022 18.704 69.4162 18.396 70.3622 18.396L70.3842 18.374Z" fill="white"/>
</svg>
